<svg width="171" height="24" viewBox="0 0 171 24" fill="none" xmlns="http://www.w3.org/2000/svg">
<path d="M69.2784 16.5893C69.2784 16.5699 69.259 16.5505 69.259 16.5116L65.36 5.63789C65.1272 4.99712 64.5259 4.58936 63.8664 4.58936H63.847H60.5881C59.9092 4.58936 59.3078 5.01654 59.0945 5.63789L53.2945 21.7931C53.1199 22.2786 53.1975 22.8223 53.4885 23.2495C53.7794 23.6766 54.2644 23.9291 54.7881 23.9291H57.8724C58.5319 23.9291 59.1333 23.5213 59.366 22.8805L62.2175 15.1718L64.7587 21.9873C64.9914 22.6087 65.5928 23.0164 66.2523 23.0164C66.2523 23.0164 66.2523 23.0164 66.2717 23.0164C66.9506 23.0164 67.5326 22.5893 67.7653 21.9679L69.2978 17.6767C69.4142 17.3466 69.4142 16.9582 69.2784 16.5893Z" fill="#16A34A"/>
<path d="M85.2806 16.6076C85.2612 16.5882 85.2612 16.5493 85.2418 16.5299L81.3428 5.6562C81.11 5.01543 80.5087 4.60767 79.8491 4.60767H79.8297H76.5709C75.892 4.60767 75.2712 5.03485 75.0578 5.67562L71.1007 16.7047L69.2579 21.8309C69.0833 22.3163 69.1609 22.86 69.4518 23.2872C69.7428 23.7144 70.2278 23.9668 70.7515 23.9668H73.8552C74.5147 23.9668 75.116 23.559 75.3488 22.9182L78.2003 15.2095L80.7608 22.0639C80.9936 22.6852 81.595 23.093 82.2545 23.093C82.2545 23.093 82.2545 23.093 82.2739 23.093C82.9528 23.093 83.5348 22.6658 83.7675 22.0445L85.3 17.7532C85.4358 17.3649 85.4358 16.9571 85.2806 16.6076Z" fill="#F97316"/>
<path d="M101.303 16.6076C101.284 16.5882 101.284 16.5494 101.264 16.5299L97.3654 5.6562C97.1326 5.01543 96.5313 4.60767 95.8717 4.60767H95.8523H92.5935C92.0697 4.60767 91.5654 4.86009 91.2744 5.28727C91.158 5.46203 91.061 5.6562 91.0222 5.85038L91.0028 5.88921C90.9835 5.92805 90.9834 5.96688 90.9641 6.00572L85.2998 21.8115C85.1253 22.2969 85.2029 22.8406 85.4938 23.2678C85.7848 23.6949 86.2697 23.9474 86.7935 23.9474H89.8778C90.5373 23.9474 91.1386 23.5396 91.3714 22.8988L94.2229 15.1901L96.7834 22.0251C97.0162 22.6464 97.6176 23.0542 98.2771 23.0542C98.2771 23.0542 98.2771 23.0542 98.2965 23.0542C98.9754 23.0542 99.5573 22.627 99.7901 22.0056L101.323 17.7144C101.439 17.3649 101.439 16.9571 101.303 16.6076Z" fill="#DB2777"/>
<path d="M53.2549 16.6103C53.2355 16.5909 53.2355 16.552 53.2161 16.5326L49.3171 5.65889C49.0843 5.01812 48.483 4.61035 47.8235 4.61035H44.5452C44.0215 4.61035 43.5365 4.86278 43.2261 5.28996C42.9352 5.71714 42.8576 6.26083 43.0516 6.76568L48.7546 22.0472C48.9873 22.6685 49.5887 23.0763 50.2482 23.0763C50.2482 23.0763 50.2482 23.0763 50.2676 23.0763C50.9465 23.0763 51.5285 22.6491 51.7612 22.0277L53.2937 17.7365C53.4101 17.3676 53.4101 16.9598 53.2549 16.6103Z" fill="#2563EB"/>
<path d="M111.876 4.60767H108.617C107.938 4.60767 107.337 5.03485 107.123 5.6562L104.116 13.9863L101.304 21.8115C101.129 22.2969 101.207 22.8406 101.498 23.2678C101.789 23.6949 102.274 23.9474 102.797 23.9474H105.882C106.541 23.9474 107.143 23.5396 107.375 22.8988L113.33 6.82125C113.408 6.62707 113.447 6.41348 113.447 6.19989C113.466 5.30669 112.749 4.60767 111.876 4.60767Z" fill="#9333EA"/>
<path d="M10.22 4.42041C12.5221 4.42041 14.3868 5.12256 15.8142 6.52685C17.2415 7.90812 17.9551 9.91097 17.9551 12.5354V23.6892H14.8473V12.9843C14.8473 11.0966 14.3753 9.65774 13.4315 8.66782C12.4876 7.65489 11.1984 7.14842 9.56389 7.14842C7.90637 7.14842 6.58265 7.6664 5.59273 8.70236C4.62584 9.73831 4.1424 11.2462 4.1424 13.226V23.6892H1V4.76573H4.1424V7.45921C4.76397 6.49232 5.60424 5.74413 6.66322 5.21464C7.74522 4.68515 8.93081 4.42041 10.22 4.42041Z" fill="#4B5563"/>
<path d="M40.3541 13.5023C40.3541 14.1008 40.3196 14.7339 40.2505 15.4015H25.1256C25.2407 17.2662 25.8738 18.7281 27.0249 19.7871C28.1989 20.823 29.6147 21.341 31.2723 21.341C32.6305 21.341 33.7586 21.0302 34.6564 20.4086C35.5772 19.764 36.2218 18.9123 36.5902 17.8533H39.9743C39.4678 19.672 38.4549 21.1568 36.9355 22.3079C35.4161 23.4359 33.5284 24 31.2723 24C29.4766 24 27.8651 23.5971 26.4378 22.7913C25.0335 21.9856 23.9285 20.846 23.1228 19.3727C22.317 17.8763 21.9141 16.1497 21.9141 14.1929C21.9141 12.2361 22.3055 10.521 23.0882 9.04767C23.8709 7.57432 24.9645 6.44628 26.3688 5.66356C27.7961 4.85781 29.4306 4.45494 31.2723 4.45494C33.0679 4.45494 34.6564 4.8463 36.0377 5.62902C37.4189 6.41175 38.4779 7.49374 39.2146 8.87501C39.9743 10.2333 40.3541 11.7757 40.3541 13.5023ZM37.1082 12.8462C37.1082 11.6491 36.8434 10.6246 36.3139 9.77284C35.7844 8.89804 35.0593 8.24193 34.1384 7.80453C33.2406 7.3441 32.2392 7.11389 31.1341 7.11389C29.5457 7.11389 28.1874 7.62036 27.0594 8.63329C25.9544 9.64623 25.3213 11.0505 25.1601 12.8462H37.1082Z" fill="#4B5563"/>
<path d="M122.817 7.35528V18.5091C122.817 19.4299 123.013 20.086 123.404 20.4774C123.796 20.8457 124.475 21.0299 125.442 21.0299H127.755V23.6888H124.924C123.174 23.6888 121.862 23.286 120.987 22.4802C120.112 21.6745 119.675 20.3508 119.675 18.5091V7.35528H117.223V4.76539H119.675V0H122.817V4.76539H127.755V7.35528H122.817Z" fill="#4B5563"/>
<path d="M139.816 23.9996C138.043 23.9996 136.432 23.5967 134.981 22.791C133.554 21.9853 132.426 20.8457 131.597 19.3724C130.792 17.876 130.389 16.1494 130.389 14.1926C130.389 12.2588 130.803 10.5552 131.632 9.08187C132.484 7.58549 133.635 6.44594 135.085 5.66322C136.535 4.85748 138.158 4.45461 139.954 4.45461C141.75 4.45461 143.373 4.85748 144.823 5.66322C146.273 6.44594 147.413 7.57398 148.242 9.04734C149.093 10.5207 149.519 12.2358 149.519 14.1926C149.519 16.1494 149.082 17.876 148.207 19.3724C147.355 20.8457 146.193 21.9853 144.719 22.791C143.246 23.5967 141.612 23.9996 139.816 23.9996ZM139.816 21.2371C140.944 21.2371 142.003 20.9723 142.993 20.4428C143.983 19.9134 144.777 19.1191 145.375 18.0601C145.997 17.0012 146.308 15.712 146.308 14.1926C146.308 12.6732 146.009 11.384 145.41 10.325C144.811 9.26604 144.029 8.48332 143.062 7.97685C142.095 7.44737 141.047 7.18262 139.919 7.18262C138.768 7.18262 137.709 7.44737 136.743 7.97685C135.799 8.48332 135.039 9.26604 134.463 10.325C133.888 11.384 133.6 12.6732 133.6 14.1926C133.6 15.735 133.876 17.0357 134.429 18.0947C135.004 19.1537 135.764 19.9479 136.708 20.4774C137.652 20.9838 138.688 21.2371 139.816 21.2371Z" fill="#4B5563"/>
<path d="M162.871 4.42007C165.173 4.42007 167.038 5.12222 168.465 6.52652C169.892 7.90779 170.606 9.91063 170.606 12.5351V23.6888H167.498V12.984C167.498 11.0962 167.026 9.6574 166.082 8.66749C165.139 7.65456 163.849 7.14809 162.215 7.14809C160.557 7.14809 159.234 7.66607 158.244 8.70202C157.277 9.73798 156.793 11.2459 156.793 13.2257V23.6888H153.651V4.76539H156.793V7.45888C157.415 6.49198 158.255 5.7438 159.314 5.21431C160.396 4.68482 161.582 4.42007 162.871 4.42007Z" fill="#4B5563"/>
</svg>
