<svg width="71" height="24" viewBox="0 0 71 24" fill="none" xmlns="http://www.w3.org/2000/svg">
<g clip-path="url(#clip0)">
<path d="M26.3334 13.9999C26.3334 13.9805 26.314 13.9611 26.314 13.9223L22.415 3.04854C22.1823 2.40777 21.5809 2 20.9214 2H20.902H17.6432C16.9642 2 16.3629 2.42718 16.1495 3.04854L10.3495 19.2038C10.1749 19.6892 10.2525 20.2329 10.5435 20.6601C10.8345 21.0873 11.3194 21.3397 11.8432 21.3397H14.9274C15.587 21.3397 16.1883 20.9319 16.4211 20.2912L19.2726 12.5825L21.8137 19.398C22.0465 20.0193 22.6478 20.4271 23.3073 20.4271C23.3073 20.4271 23.3073 20.4271 23.3267 20.4271C24.0057 20.4271 24.5876 19.9999 24.8204 19.3785L26.3528 15.0873C26.4692 14.7572 26.4692 14.3689 26.3334 13.9999Z" fill="#16A34A"/>
<path d="M42.3357 14.018C42.3163 13.9986 42.3163 13.9597 42.297 13.9403L38.398 3.0666C38.1652 2.42583 37.5638 2.01807 36.9043 2.01807H36.8849H33.6261C32.9471 2.01807 32.3264 2.44525 32.113 3.08602L28.1558 14.1151L26.313 19.2413C26.1384 19.7267 26.216 20.2704 26.507 20.6976C26.798 21.1248 27.2829 21.3772 27.8067 21.3772H30.9103C31.5699 21.3772 32.1712 20.9694 32.404 20.3286L35.2555 12.6199L37.816 19.4743C38.0488 20.0956 38.6501 20.5034 39.3097 20.5034C39.3097 20.5034 39.3097 20.5034 39.3291 20.5034C40.008 20.5034 40.5899 20.0762 40.8227 19.4549L42.3551 15.1636C42.4909 14.7753 42.4909 14.3675 42.3357 14.018Z" fill="#F97316"/>
<path d="M58.3583 14.018C58.3389 13.9986 58.3389 13.9598 58.3195 13.9403L54.4206 3.0666C54.1878 2.42583 53.5864 2.01807 52.9269 2.01807H52.9075H49.6486C49.1249 2.01807 48.6206 2.27049 48.3296 2.69767C48.2132 2.87243 48.1162 3.0666 48.0774 3.26078L48.058 3.29961C48.0386 3.33845 48.0386 3.37728 48.0192 3.41612L42.355 19.2219C42.1804 19.7073 42.258 20.251 42.549 20.6782C42.84 21.1053 43.3249 21.3578 43.8487 21.3578H46.9329C47.5925 21.3578 48.1938 20.95 48.4266 20.3092L51.2781 12.6005L53.8386 19.4355C54.0714 20.0568 54.6727 20.4646 55.3323 20.4646C55.3323 20.4646 55.3323 20.4646 55.3517 20.4646C56.0306 20.4646 56.6125 20.0374 56.8453 19.416L58.3777 15.1248C58.4941 14.7753 58.4941 14.3675 58.3583 14.018Z" fill="#DB2777"/>
<path d="M10.3101 14.0209C10.2907 14.0015 10.2907 13.9627 10.2713 13.9433L6.37227 3.06953C6.1395 2.42876 5.53816 2.021 4.87863 2.021H1.60037C1.07663 2.021 0.591682 2.27342 0.281314 2.7006C-0.00965501 3.12779 -0.0872456 3.67147 0.106734 4.17632L5.80973 19.4578C6.04251 20.0792 6.64384 20.4869 7.30337 20.4869C7.30337 20.4869 7.30337 20.4869 7.32277 20.4869C8.0017 20.4869 8.58364 20.0597 8.81641 19.4384L10.3489 15.1471C10.4652 14.7782 10.4652 14.3704 10.3101 14.0209Z" fill="#2563EB"/>
<path d="M68.9311 2.01807H65.6722C64.9933 2.01807 64.3919 2.44525 64.1786 3.0666L61.1719 11.3967L58.3592 19.2219C58.1846 19.7073 58.2622 20.251 58.5532 20.6782C58.8441 21.1053 59.3291 21.3578 59.8528 21.3578H62.9371C63.5966 21.3578 64.198 20.95 64.4307 20.3092L70.3859 4.23165C70.4635 4.03747 70.5023 3.82388 70.5023 3.61029C70.5217 2.71709 69.804 2.01807 68.9311 2.01807Z" fill="#9333EA"/>
</g>
<defs>
<clipPath id="clip0">
<rect width="71" height="24" fill="white"/>
</clipPath>
</defs>
</svg>
